<?xml version="1.0" encoding="iso-8859-1"?>
<!-- Generator: Adobe Illustrator 24.2.0, SVG Export Plug-In . SVG Version: 6.00 Build 0)  -->
<svg version="1.1" id="Layer_1" xmlns="http://www.w3.org/2000/svg" xmlns:xlink="http://www.w3.org/1999/xlink" x="0px" y="0px"
	 viewBox="0 0 463.9 453.4" width='927.8' height='906.8' style="enable-background:new 0 0 463.9 453.4;" xml:space="preserve">
<style type="text/css">
	.st0{fill:none;stroke:#000000;stroke-width:0.35;stroke-miterlimit:10;}
</style>
<path class="st0" d="M214.2,0c0.6,0.4,1.1,0.9,1.7,1.3c3.3,2.5,6.8,5.1,9.9,7.9c0.4,0.4,0.8,0.8,1.2,1.2c0.4,0.4,0.7,0.8,1.1,1.1
	c7.1,6.4,14.7,9.9,21.4,9.9l0,0c6.6,0,12.1-3.2,16.5-9.6c2.4-3.5,4.3-7.6,5.4-11.7"/>
<path class="st0" d="M0,49.5c0.1-0.5,0.3-0.9,0.4-1.4C3.2,40,8.7,34.9,14.1,29.9c4.6-4.3,9.4-8.8,12.5-15.2
	c1.5-3.2,3.1-8.4,3.8-14.7"/>
<path class="st0" d="M229.6,0c0.5,0.5,1,0.9,1.5,1.4c5.1,4.7,10.9,10,16.9,10l0,0c2.3,0,4.5-0.8,6.5-2.3c1.9-1.4,2.8-2.9,3.8-4.4
	c0.4-0.6,0.8-1.3,1.3-2c0.4-0.9,0.7-1.8,1-2.7"/>
<path class="st0" d="M0,83.1c0.1-0.2,0.2-0.4,0.2-0.6c1.6-4.1,2.7-9.6,3.7-15C5,61.9,6,56.7,7.5,53c2.6-6.3,8-11.7,13.7-17.3
	c3.5-3.5,7.2-7,10.2-11c3.8-4.9,6.4-9.1,8.6-14.2c1.3-3,2.4-6.4,3.4-9.7c0.1-0.3,0.2-0.6,0.3-0.9"/>
<path class="st0" d="M0,132.8c4.7,0.2,9.8,0.8,15,1.9c2.3,0.5,4.4,1.3,6.4,2.1c7.5,3,16.8,6.7,20.3,14.3c0.2,4.1-1.2,7.7-2.7,11.4
	c-2.2,5.2-4.6,11.1-3.2,20.3c1.1,7,5.2,11.5,10,16.7c2,2.2,4,4.4,5.9,6.9c5,6.6,8.5,14.1,11.1,20.5c2.7,6.4,4.8,11.5,11.8,13.2
	c4.2,1,10.1,1.7,14.1,2.1c2.2,0.2,4.3,0.4,6.2,0.4c3.1,0,5.8-0.3,8-1c4.8-1.4,7.8-5.3,11.6-10.2c1.1-1.5,2.3-3,3.6-4.6
	c0.9-1.1,2.1-2.3,3.4-3.6c2.6-2.7,5.4-5.4,6.1-7.6c0.3-0.9,0.2-1.6,0.1-2.5c-0.1-0.7-0.1-1.4,0-2.3l0,0l0,0
	c-2.6-3.4-5.7-6.1-8.7-8.7c-5.1-4.5-9.9-8.7-11.8-15.6c-1-3.6-0.6-7.6,1.1-11.9c1.8-4.6,5.9-9.7,11.7-14.3c2.6-2.1,5.4-4.2,8.3-6.5
	c13.4-10.5,28.7-22.3,37-32.7l0-0.1c0.3-1.3,0.2-2.7-0.2-4.3c-1.1-4.3-4.5-9.5-9.3-14.2c-4.6-4.4-9.9-7.7-14.1-8.9
	c-0.3-0.1-1-0.3-1.7-0.4c-5.6-1.3-11.4-0.4-17,0.5c-4.8,0.7-9.4,1.4-13.9,0.8c-9.6-1.3-16.6-7.7-19-17.7
	c-3.2-13.1,5.7-21.3,14.3-29.3c6.3-5.9,12.9-11.9,14.6-20c1.6-7.5-0.5-15.7-1.9-21.1c-0.6-2.2-1.3-4.3-2-6.5"/>
<path class="st0" d="M128.7,0c0.2,0.7,0.4,1.3,0.5,1.9c0.4,1.4,0.8,2.9,1.2,4.3c0.6,2.2,1.3,4.4,1.9,6.6c1.4,4.8,2.7,9.3,3.3,13.3
	c0.4,2.9,0.4,5.9,0,7.9c-1.1,6.2-5.3,11.1-9.4,15.8c-4.6,5.4-9.5,11-9.8,18.7c0.5,6.9,8.3,7.9,16.5,9c1.5,0.2,3.1,0.4,4.6,0.6
	c6,1,13,2.9,20.1,5.6c2.5,0.9,4.9,2.1,7.2,3.3c4.4,2.2,8.6,4.3,13.5,4.8c0.6,0.1,1.3,0.1,1.9,0.1c3.3,0,6.2-0.9,8.7-1.8
	c2.5-0.9,4.7-1.8,6.8-2.8c4.5-2,8.7-3.8,15.2-4.4c1.2-0.1,2.3-0.2,3.5-0.2c7.1,0,13,1.9,18.8,3.7c5,1.6,9.7,3,14.5,3
	c1,0,1.9,0,2.8-0.2c7.4-0.9,13.1-4.8,17.4-11.7c3.8-6.1,5.9-13.9,7.8-21.4c0.5-2.2,1.5-6.3,1.8-9.3c0.3-2.8-0.1-4.8-1.3-6.3
	c-2.2-2.6-6.7-2.7-11.9-2.9c-2.4-0.1-4.8-0.2-7.2-0.5c-10.2-1.3-18.8-2.6-28.3-6.6c-7.8-3.2-15.6-7.3-20.8-10.1
	C199.5,15.9,189.6,10,182.6,0"/>
<path class="st0" d="M0,26.5c1.3-0.9,2.6-1.8,3.9-2.6c4.2-2.7,8.3-5.3,11.1-9.6c2.2-3.4,4.1-7.5,4.2-14.3"/>
<path class="st0" d="M138.1,0c1.3,5.9,3.2,11.6,4.9,15.8c0.5,1.2,1,2.4,1.5,3.5c1.3,2.9,2.7,5.9,3.1,9.1c1.3,8.6-3.2,14.2-7.4,19.6
	c-2.9,3.7-5.7,7.2-6.5,11.4c-0.2,1.1-0.2,1.7-0.1,2.6c0,0.4,0.1,0.9,0.1,1.6v0c1.1,3,4.4,5.2,6.9,6.4c9.2,4.6,24.3,6.7,35.2,8.3
	c1.7,0.2,3.3,0.4,5,0.4l0,0c4.3,0,8.2-0.7,12.4-1.5c4.5-0.8,9.1-1.7,14.4-1.7c1.4,0,2.9,0.1,4.3,0.2c0.3,0,1.1,0.1,2.1,0.1
	c1.5,0.1,3.4,0.2,4.7,0.3c4.5,0.3,8,1.1,11.4,1.9c4.6,1,8.8,2,15.2,2c0.7,0,1.3,0,2,0c5-0.8,9.7-6.1,11.5-13.2
	c1.5-5.9,1.2-13.7-4.4-18.1c-6.5-5.1-25.6-9.6-35.9-10.4c-2.2-0.2-4-0.2-5.8-0.2c-2,0-4,0-6.6-0.3c-7.1-0.6-12.9-3.4-19.5-9.3
	c-8.2-7.3-12.7-12.9-19-24.1c-0.7-1.2-1.3-2.7-1.9-4.3"/>
<path class="st0" d="M0,118.8c8.5-1.8,16.4-6.3,22.3-12.8c3-3.3,5.6-6.8,8.4-10.6c4.4-5.9,9-12,14.9-17.1c0.4-0.4,0.8-0.8,1.2-1.2
	c0.4-0.4,0.7-0.8,1.1-1.1c3.9-3.4,8.3-6.1,12.5-8.8c3-1.8,6-3.7,8.9-5.8c2.3-1.7,4.6-3.5,6.8-5.2c3.4-2.6,6.8-5.3,10.3-7.7
	c1.7-1.1,3.4-2.2,5.2-3.4c8.9-5.7,19.1-12.2,20.6-23.9c0.8-6.2-0.8-14.1-4.3-21.3"/>
<path class="st0" d="M0,104.7c3.6-1.8,7-4,9.1-7c2.9-4.2,2.9-11.8,2.6-18c-0.2-5-0.2-14.5,3.1-22.4c2.5-6,8.5-11.4,14.3-16.6
	c0.9-0.8,1.8-1.6,2.6-2.4C43.3,27.7,49,18.2,54.1,7.2c0.4-0.9,0.8-1.9,1.2-2.9c0.4-1.2,0.9-2.4,1.5-3.6C56.9,0.5,57,0.2,57.2,0"/>
<path class="st0" d="M0,7.4L0,7.4c1.1,0,2.3-0.5,3.2-1.5c1.4-1.4,2-3.7,2-5.9"/>
<path class="st0" d="M73,0c-1.4,1-2.7,2.1-3.7,3.4C66.2,7,64,11.9,61.8,16.7c-0.3,0.7-0.7,1.4-1,2.2c-3.2,6.8-7.1,15.2-11.3,21
	c-2.3,3.2-6.1,5.4-10.2,7.8c-5.7,3.4-11.7,6.9-14,13.4c-0.8,2.3-0.9,4.9,0,8.1c0.8,1.8,2.2,2.7,4.1,2.7l0,0c3.2,0,6.9-2.5,8.5-3.8
	c3.1-2.6,5.8-6.2,8.4-9.7c1.4-1.8,2.8-3.8,4.3-5.6c0.7-0.8,3.2-3.6,5.3-4.9c4.9-2.9,11.2-5.1,17.9-7.5c9.3-3.2,18.8-6.6,24.8-12.1
	c3.2-2.9,5.1-7.4,5.2-12.3c0.1-5.3-1.7-10.3-5.2-14.2c-0.6-0.7-1.3-1.3-2-1.9"/>
<path class="st0" d="M154.3,58.4L154.3,58.4c0.4,0.4,0.6,1,0.8,1.5l0,0.1l0,0.1c1.6,1.5,3.9,2.3,6.6,2.3l0,0c3.8,0,7.7-1.6,9.5-4
	c1.1-1.5,1.5-3.1,1.1-4.8c-0.8-3.2-3.9-4.2-7.2-5.1l0,0l0,0C159.6,49.3,153.7,52.7,154.3,58.4L154.3,58.4z"/>
<path class="st0" d="M212.5,62.1l0.1,0.1l0,0c3.5,2.2,9.2,3.6,14.2,3.6l0,0c3.3,0,9.1-0.7,10.6-5.1v0c0-1.6-0.5-2.9-1.7-4.1
	c-2.2-2.3-6.5-3.6-11.3-3.6c-6.1,0-12.7,2.3-12.8,7.6v0l0,0C212.1,61,212.3,61.6,212.5,62.1z"/>
<path class="st0" d="M59.4,164.8c-1.2,5.2-2.5,10.7-2,18.8c4.1,14.1,8.9,24.7,14.6,32.6c1.4,1.8,3,3.9,5.1,5.6
	c3,2.4,7.3,3.8,11.4,3.8l0,0c4.1,0,7.7-1.4,10-4c2.5-2.9,3.5-7,2.8-12.3c-0.4-3-1.5-6.1-2.5-9.1c-1.1-3-2.2-6.1-2.5-9.1
	c-1.6-11.5,3.4-23.4,13.1-31.8c4.1-3.6,8.4-6.5,12.5-9.3c4.5-3.1,9.1-6.2,13.4-10.2c6.6-6,14.1-12.8,15.4-23.1v0v0
	c-0.8-4.9-2.3-9.9-7.8-13.4c-3.1-2-6.6-3-10.9-3c-3.7,0-7.5,0.7-11.5,1.4c-4.3,0.8-8.8,1.6-13.4,1.6c-1.1,0-2.3,0-3.3-0.1
	c-2.2-0.2-5-0.9-7.9-1.6c-3.9-0.9-8-1.9-11.2-1.9c-0.7,0-1.3,0-1.8,0.1c-4.3,0.7-8.9,4.4-12.5,7.6c-5.9,5.3-11.4,10.9-12.3,15.4
	c-0.4,1.8-0.2,4.6,0,6.7c0.3,3.2,1,5.8,1.7,8.4c1.1,4.6,2.3,9.4,1.8,17C60.9,158.3,60.2,161.5,59.4,164.8z"/>
<path class="st0" d="M72.8,164.2c0.2,0.9,0.4,1.9,0.5,3c0.6,3.7,1.3,7.9,5.1,9.9l0,0h0c4.6-0.3,7.5-4.4,10.6-8.8
	c1.1-1.5,2.2-3.2,3.5-4.6c6.8-7.9,14.5-13.1,21.9-18.1c5.2-3.6,10.1-6.9,14.5-11c1.4-0.7,2.3-1.9,3.2-3.1c0.7-0.9,1.4-1.8,2.3-2.5
	c4-5,5.3-10.8,3.4-14.8c-1.2-2.5-4.3-5.6-11.9-5.6c-1,0-2.1,0.1-3.2,0.2c-2.4,0.2-5.3,0.8-8.2,1.3c-3.3,0.6-7,1.3-10.7,1.7
	c-0.8,0.1-1.5,0.1-2.3,0.2c-10,1-16,1.6-22,8.7c-4.3,5.1-6.6,11.3-7.2,19.7c-0.4,5.4-0.1,11.3,0.2,16.4
	C72.7,159.6,72.8,162,72.8,164.2z"/>
<path class="st0" d="M211.9,138.6c1.6,15.3,3.2,29.7,15.1,40c8,6.9,20.9,14.3,33.3,14.3l0,0c7.6,0,13.8-2.8,18.5-8.3
	c4.1-4.8,6.1-10.4,8.5-16.9c0.3-0.7,0.5-1.4,0.8-2.2c0.5-1.3,0.9-2.5,1.4-3.7c2.7-7,5.2-13.7,5.8-19.2c1.4-12.1-3-17-8.5-21.8
	c-8.5-7.3-19.5-7.9-31.2-8.5c-2.8-0.1-6-0.4-9.5-0.8c-5.5-0.5-11.6-1-16.8-1c-5.6,0-9.2,0.6-11.2,1.9c-8.3,5.5-7.3,18.9-6.5,24.3
	L211.9,138.6z"/>
<path class="st0" d="M223.2,141.1c1.4,13.2,2.7,24.6,13.3,33c5,3.9,13.9,8.5,22.8,8.5l0,0c4.4,0,8.1-1.1,11.1-3.4
	c8.3-6.4,11.9-19.9,12.5-29.4c0.7-11-3.4-20.7-10.8-25.8c-6.8-4.7-15.5-5.2-24.6-5.7c-2-0.1-4-0.2-6-0.2c-5.8,0-12.9,0.7-16.5,6.3
	c-2.1,4.3-2,9.3-1.8,14.1C223.2,139.4,223.2,140.2,223.2,141.1z"/>
<path class="st0" d="M92.1,139L92.1,139c0.4,0.2,0.6,0.5,0.9,0.8c0.3,0.4,0.7,0.7,1.1,0.9l0,0h0c6.1-1.1,13-4.2,18.1-8.2
	c2-1.6,4.4-3.8,4.8-6.5l0,0l0,0c-0.3-0.4-0.7-0.8-1-1.1c-0.3-0.3-0.5-0.5-0.8-0.8l0,0h0c-0.9-0.1-1.9-0.1-2.9-0.1
	c-5.3,0-12.5,1.6-16.9,6.1C93.1,132.5,92,135.5,92.1,139L92.1,139z"/>
<path class="st0" d="M245.6,168.1c3.6,2.3,7.6,3.6,11.3,3.6l0,0c4.9,0,9-2.1,11.9-6.1c6.8-9.3,3.7-26.9-6-34.2
	c-2.6-2-7.1-4.4-13.5-4.4c-1.5,0-3.1,0.1-4.6,0.4c-6.8,1.1-10.3,6.5-10.2,15.5C234.5,149.6,236.1,161.9,245.6,168.1z"/>
<path class="st0" d="M0,225.7c5.1-3.6,9.5-5.7,13.4-6.3c8.1-1.3,10.9,3.8,13.7,8.8c0.9,1.6,1.7,3.2,2.7,4.4l0,0
	c1.4,1.8,3.8,4.8,7.1,4.3c3.6-0.5,8.3-4.8,7.4-11c-0.7-5-4-8.6-10.5-11.5c-0.4-0.2-0.8-0.4-1.3-0.5c-3.1-1.3-6.1-2.6-7.5-5.6
	c-1.4-5.9-1.7-13.9-2-22.4c-0.2-7-0.5-14.3-1.4-20.5c-1.8-11.9-7.9-19.1-18.7-21.8c-0.9-0.2-1.9-0.5-3-0.6"/>
<path class="st0" d="M0,204.2c1.9-1.3,3.7-2.8,5.3-4.6c4.8-5.2,7.3-13,7-21.3c-0.3-8-3.3-15.3-8-19.6c-1.4-1-2.9-1.7-4.3-2"/>
<path class="st0" d="M137.6,176.1c0.7-8.2,12-17.5,21.2-17.5c0.8,0,1.6,0.1,2.3,0.2c3.4,0.7,7.7,3.4,13,7.9
	c7.7,6.7,18.3,18.5,22.9,29.8c0.5,1.4,1.2,3.1,1.4,4.5c0.9,5.7-1.3,10.6-6.5,14.6c-3.1,2.3-7.1,3.6-11.9,3.6l0,0
	c-8.7,0-18.9-4.1-24.7-10c-2.4-2.4-4.3-5.3-6.1-8.3c-4.1-6.7-7.8-13.9-11.1-21.6c0,0,0,0,0,0c0,0,0,0,0,0c0.1-0.7-0.1-1.3-0.2-1.9
	C137.7,176.9,137.6,176.5,137.6,176.1z"/>
<path class="st0" d="M178.3,182.9c-4.6-4.2-10.2-7.3-14.5-8c-0.8-0.1-1.6-0.2-2.3-0.2c-2.7,0-4.8,0.8-6.4,2.5
	c-1.8,1.9-2.8,4.9-2.6,8.5c1.9,8.1,3.8,14.7,9.5,19.3c3.6,3,9.1,4.9,14,4.9l0,0c5.9,0,10-2.7,11.2-7.4c0.4-1.4,0.3-3.4,0.1-4.8
	C186.7,192.9,183.4,187.5,178.3,182.9z"/>
<path class="st0" d="M230.2,219.6L230.2,219.6L230.2,219.6c-0.7-0.1-1.2-0.1-1.8-0.1c-1.2,0-2.4,0.2-3.7,0.6
	c-6.8,2-13.6,7.9-15.9,13.7c-1.6,4.1-0.9,8.6-0.3,13c0.6,4.1,1.2,7.9,0,11.2c-1.8,5.2-6.4,8.4-10.9,11.6c-4.8,3.3-9.7,6.8-10.9,12.5
	c-0.7,4,0.3,7.9,3,11c3.8,4.5,10.8,7.5,17.7,7.5l0,0c4.6,0,8.5-1.2,11.5-3.5c2.4-1.8,4-4.2,5.7-6.8l0.3-0.4
	c1.7-3.4,2.3-7.4,2.9-11.8c0.5-3.7,1.1-7.6,2.4-11.5c0.8-2.3,1.6-4.2,2.4-6c2.5-5.6,4.6-10.5,3.6-22.4
	C235.7,231.3,234.5,223,230.2,219.6z"/>
<path class="st0" d="M32.3,262.2c-1-0.9-2.2-1.4-3.5-1.4c-2.2,0-4.5,1.4-6.6,3.7c-2.5,2.9-3.9,6.7-3.4,9.4c1,4.6,5.2,7,8.8,7l0,0
	c2.5,0,4.7-1.1,6.2-3.1C36.8,273.8,35.9,265.4,32.3,262.2z"/>
<path class="st0" d="M110.6,290.5c-0.2-0.3-0.4-0.7-0.4-1l0,0l0,0c-0.8-0.6-1.8-0.9-2.8-0.9c-1.6,0-3.2,0.7-4.3,2
	c-1.1,1.2-1.6,2.6-1.5,4l0,0c0.8,1.5,2,2.3,3.7,2.3l0,0c2.5,0,5.6-2.2,5.9-5.1v0v0C111,291.3,110.8,290.9,110.6,290.5z"/>
<path class="st0" d="M396,0c1.6,1.8,3.2,3.1,5,4c5.2,2.5,11.3,2.8,16.4,0.7c2.5-1.1,4.7-2.7,6.3-4.7"/>
<path class="st0" d="M198.5,0c3.5,2.9,7.5,5.6,11.6,8.3c2.2,1.5,4.5,3,6.7,4.5c2,1.4,4,3,5.8,4.4c4.5,3.5,8.8,6.9,13.5,8.4
	c5.3,2.6,10.3,3.9,15.1,3.9c4,0,7.8-0.9,11.4-2.7C273.1,21.5,279,9.9,281.3,0"/>
<path class="st0" d="M292.4,0c0,0.7-0.1,1.5-0.2,2.2c-0.4,5.2-0.9,11.1,0.5,14.6c1.4,3.5,4.6,5.2,9.6,5.2c2.6,0,5.2-0.4,7.3-0.8h0.1
	c0.5-0.1,1-0.1,1.5-0.1c2,0,4.1,0.6,6,1.2c1,0.3,2.1,0.6,3.1,0.8c0.8,0.2,1.7,0.3,2.5,0.5c3.4,0.7,6.9,1.4,10.1,2.8
	c1.3,0.6,2.5,1.1,3.8,1.7c6.2,2.7,12.6,5.5,16.8,10.9c0.3,0.3,0.5,0.7,0.7,1c2.9,4.3,5.4,8.9,7.8,13.4c2.7,5.1,5.6,10.3,9,15
	c3.3,4.6,7.7,9.8,12,14.7c1.5,1.7,2.9,3.4,4.3,5c6.8,8.1,13.2,15.7,25.1,15.7h0c3,0,6.3-0.5,9.9-1.4c10.3-2.8,28.4-9.7,34.6-24.7
	c1.6-4,2.7-9.5,3.9-15.4c0.9-4.4,1.8-9,3-12.8"/>
<path class="st0" d="M379.7,0c0.6,2.4,1.2,4.7,1.9,6.6l0,0c6.4,8.6,17.7,13.8,30.3,13.8c3.1,0,6.2-0.3,9-0.9
	C432.2,17,435.8,9.3,437.4,0"/>
<path class="st0" d="M307.6,0c2.7,6.4,7.2,10.3,13,11.1c5.7,0.8,11.1,2.5,16.4,4.1c3.4,1.1,6.9,2.2,10.4,3c2.3,0.5,4.5,1,6.5,1.3
	c2.1,0.3,3.9,0.5,5.4,0.5l0,0c3.1,0,5-0.6,5.5-1.9c1.6-3.4,2.8-10.9,2.9-18.1"/>
<path class="st0" d="M446.3,0c0,0.2,0,0.3,0,0.5c-0.1,1.7-0.2,3.4-0.3,5.1c-0.3,7.9-0.5,14.8-5.8,18.8c-5.5,4.2-15,5.4-22,6.3
	c-0.7,0.1-1.4,0.2-2,0.3c-1.2,0.2-2.5,0.2-3.7,0.2l0,0c-7.1,0-14.7-2.4-22-4.7c-6.6-2-13.3-4.2-19.7-4.5h0l0,0
	c-3.6,1-4.5,4.9-4.2,8.2c1,12.7,5.5,23.2,15.5,36c2,2.6,3.9,5.2,5.7,7.7c3.1,4.3,6,8.3,9.5,12.2c5.1,5.8,11.6,8.7,19.1,8.7l0,0
	c8.8,0,18.6-4.1,27.1-11.2c8.7-9.4,10-21.9,10.6-33.9c0-0.9,0.1-1.9,0.1-2.9c0.1-4.8,0.3-10.8,2.6-13.8c2.1-2.6,4.5-4.6,7-6.4"/>
<path class="st0" d="M463.9,104.5c-1.6,0.8-3.2,1.5-4.8,2.3c-3.6,1.7-7.1,3.2-9.7,5.4l0,0c-1.5,1.2-3.7,3-3.5,5.4l0,0l0,0
	c0.5,0.4,0.9,0.8,1.3,1.2l0,0h0c2.7,0.5,5.5,0.8,8.3,0.8l0,0c2.8,0,5.6-0.3,8.4-0.9"/>
<path class="st0" d="M458.7,0c0,0.6-0.1,1.2,0,1.8c0.2,3,2.7,5.6,5.2,5.6"/>
<path class="st0" d="M428.7,41.6c-1.4,0-2.9,0.2-4.4,0.4c-3.3,0.6-6.8,1.7-10.5,2.8c-4.2,1.2-8.5,2.5-12.6,3.2
	c-3.8,0.7-5.5,2.4-5,5.2v0c1.3,2.8,2.4,5.9,3.5,9.3c2.3,7.2,4.8,14.7,10.7,18.6c2.8,1.8,6.2,2.8,9.9,2.8l0,0c5.9,0,12-2.5,16.3-6.6
	c3.5-3.4,6.1-9,6.8-15c0.8-6.3-0.4-12.2-3.5-16.3C437.8,43.3,433.5,41.6,428.7,41.6z"/>
<path class="st0" d="M182.4,137.4c1.1,2.1,2.2,4.2,3.2,6.3c0.8,1.8,1.7,3.7,2.5,5.6c5,11.4,10.2,23.1,17.7,32.6
	c2.9,3.6,6.4,7.1,9.7,10.5c3.2,3.2,6.3,6.2,8.7,9.3c1.2,1.4,2.2,3,3.2,4.6c2.1,3.2,4,6.3,7.3,8.3l0,0l0.9-0.1
	c12.5-0.7,23.3-1.4,34.8-3.5c8.2-1.5,14-3.1,17.2-4.7c6.6-3.4,8.4-9.5,10.3-15.9c0.2-0.7,0.4-1.3,0.6-2c2.8-9.1,6.9-18.3,17.3-24.1
	l0,0c0.1-0.1,0.2-0.2,0.3-0.3c2.2-1.1,4.3-2.3,6.5-3.5c3.8-2,7.7-4.1,11.6-6.1c1.7-0.9,3.3-1.8,5-2.6c2.5-1.4,5.2-2.8,7.8-4.1
	c1.8-0.9,3.4-2.1,5-3.2c0.4-0.3,0.8-0.6,1.2-0.9c1.4-1.1,3.1-2.1,4.9-2.8c3.4-1.4,7.3-1.5,10.9-1.7c3.2-0.1,6.5-0.3,9.6-1.2
	c2.9-0.9,5-1.6,6.7-4.1c5.5-8,2.7-14.1-1.8-21.7c-4.8-8-10.5-14.2-17.2-18.5c-1.2-0.8-2.5-1.4-3.7-2c-1.4-0.7-2.8-1.3-4.1-2.2
	c-1.5-1-2.9-2.2-4.3-3.2c-1.1-0.9-2.3-1.8-3.5-2.7c-4.8-3.5-10.6-7.4-17.1-9.6c-2.2-0.8-4.7-0.9-6.5-0.9c-1.8,0-3.6,0.2-5.2,0.5
	c-2,0.4-3.6,1.3-5.4,2.2c-0.7,0.4-1.5,0.8-2.3,1.2c-0.9,0.4-1.8,0.7-2.6,1c-1.1,0.4-2.3,0.8-3.3,1.4c-2.6,1.4-5.2,3.1-7.7,4.8
	c-2.4,1.6-4.8,3.2-7.4,4.6c-11.9,6.7-22.2,10.5-32.1,11.9c-3,0.4-6,0.7-9,0.7c-3.7,0-7.4-0.3-11-1c-2.8-0.5-5.7-1.3-8.5-2.1
	c-4.9-1.4-10-2.8-14.9-2.8c-2.7,0-5.2,0.4-7.5,1.3c-4.7,1.7-8.9,5.3-13.4,9.2c-2.3,1.9-4.6,4-7.2,5.9c-0.6,0.4-1.3,0.9-2.1,1.5
	c-1.8,1.3-4.1,2.9-6,4.5c-3.6,3.1-4.6,5.9-3.4,9.8C178.9,130.6,180.6,133.9,182.4,137.4z"/>
<path class="st0" d="M201.4,151.9l0.4,1.6c4.4,16.2,10.8,25.8,23.9,35.4l0.3,0.2c7,5.1,13.1,9.6,19.9,11.8c3.4,1.1,7.5,1.7,11.9,1.7
	c0,0,0,0,0,0c5.9,0,11.8-1,16-2.7c10.9-4.5,14.9-14.1,19.5-25.2c6-14.5,16.6-33.3,32.7-40.3c2.9-1.3,5.7-1.5,8.7-1.8
	c1.1-0.1,2.3-0.2,3.5-0.4c4.6-0.6,9.6-1.6,15.6-2.9c0.8-0.2,1.7-0.4,2.5-0.5c4.3-1,10.1-3.7,12-8.2c1.4-3.3,1.2-6.4-0.6-9
	c-5.2-7.9-23.3-10.6-30.7-10.6h-0.1c-3.3,0-6.6,0.3-9.9,0.7c-1.8,0.2-3.7,0.4-5.6,0.5c-3.1,0.2-5.7,1.1-8.8,3.1c-3.2,2-6.7,3-10.9,3
	c-3.1,0-6.3-0.5-9.7-1c-1-0.2-2.1-0.3-3.1-0.5c-4.4-0.6-9.1-0.9-14.9-0.9c-3.6,0-7.2,0.1-10.6,0.2c-3.5,0.1-7,0.2-10.5,0.2
	c-6.4,0-11.5-0.4-16.3-1.2c-1.4-0.3-2.9-0.6-4.5-1c-3.4-0.8-7.3-1.8-11.1-1.8c-2.1,0-4.1,0.3-5.9,0.8c-9,2.7-16.4,13.6-17.8,22.2
	c-0.5,3.2-0.4,6.5,0.2,10.3C198.6,141.4,200,146.5,201.4,151.9z"/>
<path class="st0" d="M463.9,143.1c-1.6-0.2-3.1-0.4-4.6-0.4c-5.7,0-10.8,1.8-15.1,5.3l0,0c-0.5,0.9-1,1.7-1.4,2.3
	c-1.5,2.4-2.4,3.9-2.9,7.9c-0.4,3.2-0.2,6.4-0.1,9.6c0.1,3.7,0.3,7.6-0.3,11.4c-2.2,13.5-12.9,27.4-25,32.3
	c-1.2,0.5-2.7,1.1-3.8,1.3c-0.9,0.1-1.7,0.2-2.5,0.2l0,0c-7.1,0-8.7-6.9-10.2-13.6c-0.4-1.5-0.7-3-1.1-4.5c-1.6-5.5-3.8-9.2-7-11.8
	c-3.3-2.7-7.7-4.4-14.2-5.6c-2.7-0.5-5.1-0.7-7.5-0.7c-4.6,0-8.9,0.9-14.6,2.8c-0.3,0.1-0.5,0.2-0.7,0.3c-3.2,1.1-5.8,2-7.7,5
	c-3.6,5.7-6.6,14.9-5.2,21.4c1.4,6.4,6,7.7,10.9,9c0.9,0.3,1.9,0.5,2.9,0.8c1.5,0.5,2.7,1,3.7,1.6c7.4,4.1,15.5,7.9,25.7,11.8
	c8.6,3.3,12.8,10.7,16.8,17.7c3.9,6.8,8,13.9,16.1,17.3c1.2,0.5,2.6,0.8,4.1,0.8l0,0c1.8,0,3.8-0.4,5.9-1.1
	c5.8-2,10.9-8.2,14.8-13.4c6-8.1,13.6-18.2,22.4-24.7c0.2-0.2,0.5-0.3,0.7-0.5"/>
<path class="st0" d="M463.9,156.7c-0.8-0.2-1.6-0.3-2.4-0.3c-4.3,0-8,2.9-9.6,7.4c-1.1,3.2-1.3,6.6-1.6,10.4
	c-0.1,1.3-0.2,2.7-0.3,4.2c-0.5,5.9-1.6,11.9-2.7,17.7c-1.1,5.8-2.1,11.2-2.3,15.5v0l0,0c0.7,0.5,1.4,1,2.3,1c0.2,0,0.3,0,0.5-0.1
	l0,0c2.2-1.2,4.5-2.4,6.7-3.5c3.2-1.5,6.4-3.1,9.4-5.1"/>
<path class="st0" d="M368.8,192.9c-4.1,0-8.2,2-8.2,6.4v0c1.3,4.4,7.3,9.7,12.6,9.7l0,0c1.3,0,2.5-0.3,3.5-1c1.5-1,2.4-2.4,2.7-4.2
	c0.4-2.3-0.3-5-1.8-7C375.9,194.4,372.4,192.9,368.8,192.9z"/>
<path class="st0" d="M439.4,219.6L439.4,219.6c-0.4-0.2-0.9-0.2-1.3-0.2c-1.8,0-3.8,1.1-5.7,2.2c-0.7,0.4-1.4,0.8-2.1,1.2
	c-0.4,0.2-0.8,0.4-1.2,0.6c-6.2,3-14.7,7.2-14.1,17.1c0.9,3.1,3.4,6.2,7.3,6.2l0,0c0.3,0,0.7,0,1.1-0.1c6.9-2.9,11.1-10.9,14-17.7
	l0.2-0.5C438.8,225.5,440.2,222.1,439.4,219.6L439.4,219.6z"/>
<path class="st0" d="M363.2,295.7c-2-1.9-4.1-2.9-6.1-2.9c-4.7,0-7.8,5.4-8.5,10.7c-0.5,4-0.4,8.4,0.3,12c0.7,3.5,2.1,5.3,5,6.3
	c0.7,0.2,1.5,0.4,2.4,0.6c1.6,0.3,2.9,0.5,4.2,0.5l0,0c3.4,0,5.9-1.2,7.4-3.5c1.7-2.7,1.4-8.8,1-12
	C368.2,302.8,366.2,298.5,363.2,295.7z"/>
<path class="st0" d="M0,370.8c3.6-0.7,7.4-1.2,11.3-1.7c3.7-0.5,7.6-1,11.3-1.7c2.1-0.4,3.8-0.8,5.5-1.2c2.1-0.5,4-1,6.5-1.4
	c2.3-0.3,4.7-0.5,7.1-0.7c5.3-0.3,10.8-0.7,15.4-3.2c5.9-3.1,6.5-10.9,4.5-17.3c-3.4-10.8-7.8-18.3-13.4-22.9
	C46.1,319,44,317,42,315c-4-4-8.2-8.2-13.6-10.3c-4.1-1.7-8.9-2.9-13.5-4.1c-2.8-0.7-5.6-1.5-8.4-2.3c-1.3-0.4-2.7-0.9-4.1-1.4
	c-0.8-0.3-1.6-0.6-2.4-0.9"/>
<path class="st0" d="M0,359c3.3-0.6,6.8-1.3,10.1-2.4c2.6-0.8,5.2-1.6,7.7-2.3c4.9-1.4,9.9-2.8,14.7-4.9c4.7-2.1,9.6-4.5,11.7-9.3
	c2.8-6.3,0.1-13.2-7.2-18.2c-1.3-0.9-2.5-1.8-3.6-2.6c-4.9-3.6-9.5-7-16.2-8.2c-4.3-0.8-10.7-1.3-17.2-1.5"/>
<path class="st0" d="M0,380.4c5.2-0.8,10.6-0.6,16.3-0.4c4.9,0.2,10,0.4,15-0.1c4.6-0.5,8.8-1.4,12.8-2.3c1-0.2,2-0.5,3-0.7
	c0.8-0.2,1.5-0.3,2.3-0.5c7.7-1.7,15.8-3.3,22.3-7.8c7.6-5.2,8.6-16,5.1-23.5c-3.2-6.9-8.5-12.3-13.6-17.5
	c-4.3-4.3-8.7-8.8-11.8-14.1c-1.4-1.9-2.6-3.8-3.8-5.6c-3.7-5.8-6.7-10.4-14.5-12.2C18,292.1,5,289.1,2.6,274
	c-0.9-5.3,0.3-9.5,1.4-13.5c0.9-3.2,1.8-6.2,1.6-9.6l0,0l0,0c-0.4-0.4-0.8-0.8-1.2-1.1c-0.5-0.5-1-1-1.6-1.5l0,0h0
	c-1,0.1-1.9,0.2-2.7,0.4"/>
<path class="st0" d="M166.4,331.3c0.7,0.3,1.4,0.6,1.9,1c2.5,1.8,4.7,4.3,6,6.1c3.5,4.5,5.5,8.9,6.8,14.6c1.9,8,6.9,11.1,14.9,13.9
	c4.6,1.6,9.6,2.4,14.6,2.4c2.5,0,5-0.2,7.4-0.6c8.6-1.5,14.1-6.8,15.2-14.3c0.2-1.6,0.5-3.2,0.8-4.8c1.2-6.4,2.4-13.1-1.4-19
	c-3.1-4.8-8.8-5.5-14.6-5.5c-1.1,0-2.3,0-3.3,0c-1.1,0-2.2,0.1-3.2,0.1c-2.1,0-3.6-0.1-5-0.3c-4.6-0.7-9.2-1.9-13.6-3
	c-7.3-1.8-14.2-3.5-21.1-3.5c-1.5,0-2.9,0.1-4.3,0.2c-1.8,0.2-3.3,1.7-4.3,4.1c-0.9,2.2-1.1,5.1,0.3,6.8
	C164.3,330.2,165.4,330.7,166.4,331.3z"/>
<path class="st0" d="M206.1,360.3c2.6,0,5.2-0.5,6.5-0.9c0.4-0.1,0.8-0.3,1.1-0.4c2.1-1,3.3-2.7,3.3-4.7c0-1.6-0.7-3.3-1.9-4.5
	c-1.7-1.7-4-2.3-6.2-1.7c-2.4,0.7-7.5,3.6-9,6.8c-0.5,1.1-0.6,2.1-0.2,3.1C200.6,359.8,203.7,360.3,206.1,360.3z"/>
<path class="st0" d="M271.5,453.4c1.2-4.1,1.6-8.3,1.2-11.7c0-0.5,0-1,0-1.5c0-0.6,0-1.1,0-1.7c-0.4-3.5-1.8-7.8-3.3-12.3
	c-1.5-4.6-3.1-9.4-3.9-14c-0.3-1.9-0.5-4-0.7-6c-0.6-6.6-1.3-13.3-5.9-16.3c-2.1-1.4-5.1-2-9.5-2c-2.5,0-5.1,0.2-7.8,0.4
	c-1,0.1-2,0.1-3.1,0.2c-9.1,0.5-27.9,2.9-34.5,7.9c-9,6.8-10,18.5-9.9,29c1.1,13.3,10.1,20.7,20.1,28.2"/>
<path class="st0" d="M30.4,453.4c0.3-3.1,0.5-6.5,0.3-10.2c-0.1-3.1,0-6.1,0.1-9.1c0.1-4.6,0.3-8.9-0.5-12.3
	c-1.9-8.5-12.7-14.6-22.1-17.5c-2.8-0.9-5.4-1.1-8.1-0.9"/>
<path class="st0" d="M260.7,453.4c1.4-4.5,1.7-9.3,0.9-13.7c-0.4-2.1-1.2-4.6-2-7.3c-1.1-3.8-2.5-8.2-3.1-12.6
	c-0.2-1.3-0.4-2.4-0.5-3.6c-1-7.6-1.9-13.5-6.9-17.5c-3.4-2.7-9.9-4.3-17.2-4.3c-8.9,0-17.2,2.3-22.2,6c-8.2,6.2-8.5,17.1-7.3,25.2
	c1.8,8.6,8,13,15.8,18.7c3.6,2.6,7.4,5.3,11.3,8.8c0.1,0.1,0.2,0.2,0.3,0.3"/>
<path class="st0" d="M115.2,453.4c-1.4-3.9-3-7.8-4.5-11.6c-2.1-5.2-4.1-10.1-5.5-14.9c-0.9-3.2-1.6-9.1-1.1-13.2
	c0.1-0.8,0.3-1.7,0.6-2.7c0.9-3.3,1.9-7.5-2.3-10.5l0,0h0c-7.8-0.9-12.5,5.5-16.7,11.1c-1.1,1.5-2.1,2.9-3.2,4.1
	c-3.8,4-9,6.8-14.4,9.9c-8.5,4.7-17.3,9.6-21.4,19.1c-1.2,2.7-2.2,5.8-3.2,8.8"/>
<path class="st0" d="M228.3,400.9c-4.8,0-9.6,1.4-12.7,3.8c-4.1,3.1-6.5,6.8-6.1,15.7c2.8,11.4,15.2,17.6,25.4,17.6l0,0
	c1.3,0,2.6-0.1,3.9-0.3h0l0,0c1.4-1.1,2.7-2.6,4.1-4.3l0,0c3.8-11.6,3.6-21.3-0.5-26.5C239.6,403.1,234.4,400.9,228.3,400.9z"/>
<path class="st0" d="M182.6,453.4c-0.1-0.1-0.2-0.3-0.3-0.4c-4-5.8-5.5-13-6.9-20c-1.6-7.8-3.3-15.9-8.4-22.3c-2.6-3.3-5.9-4.6-10-4
	c-8.4,1.3-18.4,8.9-23.8,13c-6,6.3-8.3,13.9-7,23.2c0.5,3.3,1.4,6.9,2.4,10.4"/>
<path class="st0" d="M229.4,415.6L229.4,415.6c-0.8-1.4-2.1-2.2-3.5-2.2c-0.4,0-0.9,0.1-1.3,0.3l0,0c-0.8,0.6-1.4,1.6-1.5,2.5
	c-0.1,0.7,0.1,1.3,0.6,1.7c0.3,0.2,0.6,0.5,0.8,0.8l0,0h0c0.4,0.2,0.9,0.2,1.3,0.2l0,0c1.4,0,2.7-0.8,3.5-2.2l0,0
	C229.4,416.4,229.4,416,229.4,415.6L229.4,415.6z"/>
<path class="st0" d="M19.2,453.4c0-1.2,0-2.5-0.2-3.9c-0.7-7.6-3.6-18.4-8.3-24.2C8,422,5.5,420.6,0,419.6"/>
<path class="st0" d="M165.9,453.4c-0.6-1.7-1.2-3.6-1.8-5.6c-2.9-9.2-6.1-19.7-15-19.7c-0.3,0-0.6,0-0.9,0c-2.9,0.2-5.5,1.6-7.5,3.9
	c-2.8,3.3-4.1,8.5-3.5,14.4c0.2,2.3,0.6,4.6,1.1,6.9"/>
<path class="st0" d="M108.1,453.4c-0.3-0.7-0.7-1.4-1-2.1c-4.6-8.4-10.9-13.7-17.3-14.6c-1.5-0.2-2.9-0.3-4.4-0.3
	c-5.9,0-11.7,1.6-16.8,4.6c-4.9,3-8.9,7.2-11.6,12.3"/>
<path class="st0" d="M5.2,453.4c0-1.5-0.3-3-0.8-4.2c-0.9-2-2.3-3.2-4.1-3.2c-0.1,0-0.2,0-0.3,0"/>
<path class="st0" d="M96.5,453.4c-3.2-2.5-7.1-3.9-11.4-3.9c-4.4,0-8.6,1.4-12.1,3.9"/>
<path class="st0" d="M396.2,453.4c-2-2.3-3.9-5.3-5.7-9.2c-1.8-3.9-3.8-7.6-6-11.6c-2.5-4.7-5.2-9.5-7.3-14.5
	c-1.2-2.7-2.2-5.7-3.3-8.9c-4.7-13.6-10.1-29-26.7-29c-0.2,0-0.4,0-0.7,0c-6,0.1-11.7,2.3-15.4,4c-0.9,0.4-1.8,0.8-2.8,1.3
	c-2.8,1.3-5.7,2.6-8.2,4c-7.5,4.2-16.2,6.2-24.5,8.2l-0.1,0c-0.7,0.2-1.5,0.4-2.3,0.5c-5.6,1.2-12.6,2.7-14.8,9.2
	c-1.7,5-0.1,11.4,1.4,17.6c0.5,2.3,1.1,4.4,1.4,6.4c1.2,7,1.3,13.6,0.2,19.7c-0.1,0.8-0.3,1.6-0.5,2.4"/>
<path class="st0" d="M463.9,390.3c-0.4,0.1-0.8,0.1-1.2,0.2c-1.6,0.3-3.6,0.9-4.7,1.3c-13.7,5.2-22.8,14.9-26.4,28.2
	c-1,3.7-1.7,8.4-2.4,13c-0.9,5.7-1.7,11.6-3.2,15.7c-0.6,1.8-1.5,3.3-2.6,4.7"/>
<path class="st0" d="M463.9,295.9c-5.5-1.9-12.1-3.8-19.2-2.2c-4.4,1-8.6,3.1-12.7,5.2c-4.1,2.1-8.3,4.2-12.6,5.1
	c-11.2,2.4-15.4-7.4-19.1-16.1c-0.5-1.2-1-2.4-1.5-3.6c-2.1-4.6-4.5-8.7-7.1-12.4c-5.3-7.4-11.3-13.3-18-17.5
	c-6.2-3.9-11.4-6-16.4-6.7c-8.1-1.1-13.8,1.4-20.5,4.3c-1.4,0.6-2.9,1.3-4.5,1.9c-4.4,1.8-9.3,3.8-12.7,8.2
	c-2.5,3.3-4.5,7.3-6.3,11.1l-0.4,0.9c-3.4,7.1-5.9,14.1-8.6,21.5c-0.6,1.7-1.2,3.4-1.8,5c-1.6,4.6-3.2,9.3-5.2,13.8
	c-1.5,3.4-3.8,6.4-6,9.3c-1.2,1.6-2.5,3.3-3.6,5c-2.8,4.3-7.3,8.1-11.6,11.8c-1.6,1.3-3,2.6-4.4,3.9c-0.9,0.8-1.8,1.6-2.8,2.4
	c-4.5,3.9-9.5,8.2-10.9,13.8c-0.2,0.7-0.3,1.5-0.5,2.2c-1.4,6.2-2.7,11.6-8.9,15.5c-5.9,3.7-13,4.9-19.3,5.9c-3,0.5-6,0.9-8.9,1.3
	c-5.4,0.7-10.5,1.4-15.1,2.6c-10.5,2.8-17,10.1-19.1,21.8c-2.1,11.4,0,25.2,2.4,30.9c2.1,5.1,5.7,9.1,9.9,12.7"/>
<path class="st0" d="M463.9,358.6c-4.7,0.9-9.4,2-13.8,3.9c-6.8,2.8-11.9,7.8-16.8,12.5c-5.1,5-9.9,9.6-16.2,11.5
	c-8.8,2.6-15.4-3.9-21.8-10.1c-0.4-0.4-0.8-0.8-1.2-1.2c-3.3-3.2-7.2-5.5-10.9-7.8c-2.7-1.7-5.5-3.4-8-5.4c-1.9-1.5-3.9-2.9-5.9-4.2
	c-1.3-0.9-2.7-1.9-4-2.8c-2.2-1.6-3.6-4.1-5.1-6.5c-0.8-1.3-1.6-2.6-2.5-3.8c-2.5-3.2-6-5.6-9.4-7.9c-6.2-4.3-12.1-8.3-12.5-16.7
	c-0.2-5,0.9-11.2,3.1-17c2.1-5.5,6.1-11.5,10.9-16.4c3.3-3.3,6.6-4.9,9.9-4.6c5.9,0.5,10.9,6.7,14.6,12c2.2,3.2,3.1,6.2,4,9.4
	c0.5,1.9,1.1,3.8,1.9,5.8c0.8,2,1.8,4,2.8,5.9c1.5,3,3.1,6.2,4.1,9.5c1.6,5.6,2,13.7-0.6,18.4c-2.5,4.5-1.3,12.2,1.3,16.3
	c2.4,3.7,8.3,6,13,7.9c1.1,0.4,2.1,0.8,3,1.2c0.4,0.2,0.9,0.4,1.3,0.6c1.5,0.7,2.8,1.3,4.3,1.6c7.4,1.5,12.5-2,15.5-10.8
	c3.2-9.2,1-17.6-6.3-23.6c-2.2-1.8-4.8-3.2-7.2-4.6c-1.1-0.6-2.3-1.3-3.4-1.9c-0.3-0.2-0.6-0.3-0.9-0.5c-3.2-1.9-7.2-4.3-9.4-7.1
	c-3.3-4.1-6-8.6-8-13.4c-1-2.4-1.8-4.9-2.7-7.5c-0.6-1.9-1.3-3.8-2-5.8c-1.7-4.5-4.3-8.4-6.1-11c-3.5-4.7-9.7-11.1-15.9-13.4
	c-9.8-3.6-23.1,6.1-29.6,13.5c-3.6,4.1-6,9.3-7.9,13.8c-0.5,1.2-1,2.5-1.5,3.7c-2.7,6.8-5.2,13.1-9.5,19c-1.4,1.9-2.5,3.9-3.6,5.9
	c-0.8,1.4-1.6,2.9-2.5,4.3c-2.3,3.6-5.8,5.7-9.2,7.5c-1.6,0.8-3.2,1.6-4.8,2.3c-4.6,2.1-9.3,4.3-13.1,8c-2.4,2.3-3.4,4.8-2.9,7.3
	c0.9,4.2,5.5,7.3,9.6,8.8c8.4,3.2,18.2,2,26.8,1l1.1-0.1c0.7-0.1,1.4-0.1,2-0.2c3.8-0.4,7.4-0.8,11-2.8c0.6-0.3,1.1-0.6,1.7-1
	c5.4-3.1,10.2-5.8,16.4-7.2c3.9-0.9,9.8-0.8,13.3,1.4c1.8,1.1,2.5,2.8,3.3,4.5c0.5,1.1,1,2.2,1.7,3.2c3,3.9,7,7,10.9,10
	c3.8,2.9,7.8,5.9,10.8,9.7c1.8,2.3,3.3,5.1,4.7,7.8c1.4,2.7,3,5.5,4.7,7.7c3.6,4.4,8.4,5.9,13.6,4.3c4.6-1.4,9.6-5.3,14.5-9.1
	c0.8-0.6,1.5-1.1,2.2-1.7c2.6-1.9,5-4,7.5-5.9c6.6-5.4,12.9-10.5,20-13.3c2.8-1.1,6-1.9,9.4-2.6"/>
<path class="st0" d="M463.9,309.6c-8.7-0.2-17.8,0.2-22.6,1.3c-3.5,0.7-7.1,2.5-10.8,4.4c-6.3,3.1-12.7,6.3-18.7,4.4
	c-10.7-3.3-14.8-14.7-18.5-24.8c-0.8-2.1-1.4-4-2.2-5.9c-1.7-4.1-3.7-8-6.2-11.4c-3.8-5.3-8.5-8.6-13.4-12c-0.8-0.5-1.5-1-2.3-1.6
	c-4.4-3.1-9.7-6.2-15.8-5.3c-1.9,0.3-3.9,1.3-5.9,2.3c-1.2,0.6-2.4,1.2-3.5,1.6c-0.8,0.3-1.7,0.6-2.6,0.9
	c-6.6,2.4-13.4,4.8-18.1,10.2c-1.3,1.5-2.5,3.5-3.6,5.4c-0.6,1-1.1,1.9-1.7,2.8c-2.3,3.6-4.3,7.5-6,11.7c-1.8,4.5-2.8,9.4-3.8,14.1
	c-1.1,5.1-2.2,10.4-4.3,15.2c-2.1,4.9-7.7,8.5-12.6,11.6c-1.3,0.9-2.6,1.7-3.7,2.5c-3.3,2.3-6.3,5.1-9,7.9c-1.8,1.8-3.7,3.6-5.7,5.3
	c-4.6,3.9-6.7,10.6-5.5,17.5c2.3,12,6.9,14,17.1,15.7c7.7,1.3,16.7,1,27.4-0.9c6.2-1.1,12.1-5.1,17.8-8.9c2.1-1.4,4-2.7,5.9-3.9
	c8-4.8,17.4-3.8,25.3,2.7c1,0.8,2,1.6,3,2.4c6,4.8,11.6,9.3,14.6,16.5c1.3,3.1,2.2,6.5,3.1,9.7c0.8,3.2,1.7,6.4,3,9.5
	c1.9,4.7,5.7,9.8,9.9,13.5c3.6,3.2,9,6.6,14.5,5c5.1-1.5,8.1-7.3,11.3-13.4c2-3.9,4.1-7.9,6.9-11.3c3.6-4.4,8.5-8.3,11.8-10.9
	l0.3-0.3c7.1-5.5,13.9-10.8,22.8-12.5c0.6-0.1,1.1-0.2,1.7-0.3"/>
<path class="st0" d="M463.9,132.5c-11-0.4-20.4,1.8-27,6.4c-5.9,4.1-9.4,9.8-10.5,17.1c-0.4,2.8-0.1,6,0.2,9
	c0.4,3.2,0.7,6.4,0.2,9.5c-0.5,3.5-2.4,6.7-4.8,8.1c-1.7,1-3.6,1.1-5.5,0.4c-6.3-7.4-11.5-12.3-19.3-15.4c-2.2-0.9-4.5-1.7-7.3-2.6
	c-1.4-0.4-2.7-0.9-4.1-1.3c-8.5-2.8-17.3-5.6-31.5-4.5c-6.9,0.6-12,1.8-16.5,6.4c-3,3-5.2,6.6-7.4,10.1c-1.6,2.5-3.2,5.1-5,7.5
	c-0.9,1.2-2.1,2.4-3.1,3.5c-1.6,1.7-3.3,3.4-4.5,5.4c-2.5,4-2.6,10.7-1.7,15.2c1.3,5.9,5,10.9,8.8,15.6c0.9,1.2,1.8,2.4,2.8,3.8
	c2.5,3.6,5.1,7.3,8.7,9.2c4,2.1,8.6,2.1,13,1.8c1.5-0.1,3.1-0.5,4.6-0.9c2.2-0.6,4.5-1.2,6.7-0.8c7.8,1.4,16.7,6.9,22.4,11.5
	c3.1,2.5,5.9,5.3,8.3,8.4c1.9,2.4,3.7,4.8,5.7,7.4c3.3,4.4,6.7,9,10.6,13.6c3.6,4.2,8.3,8.2,15.7,5.7c4.2-1.5,7.8-4,11.2-6.4
	c5-3.7,9.5-8.8,13.8-13.8c4-4.6,7.7-8.9,11.5-11.5c1-0.7,2.2-1.4,4.1-1.8"/>
<path class="st0" d="M121.5,0c0.2,0.7,0.4,1.4,0.6,2.2c1.8,6.5,3.6,12.6,4.3,18.5c0.4,3,0.8,8.6-0.2,12.4
	c-1.7,6.2-6.8,11.5-11.6,16.7c-6.8,7.3-13.9,14.8-11.8,24.9c1.2,5.4,4.1,8.8,9,10.3c4.2,1.3,9.5,1.2,15.4,0.8
	c10.7-0.6,18,1.2,22.3,2.8c4.3,1.6,8.2,4.3,12,7c5.1,3.5,10,6.9,15.4,7.6c2.2,0.3,4,0.2,6-0.2c5.1-1.1,9-3.7,13.1-6.4
	c6.9-4.6,14.1-9.4,28-6.6c3.1,0.6,6.1,1.5,9.3,2.5c10.3,3,20.9,6.2,32.7-0.1c10.7-5.4,17.5-15.3,24-24.8c3-4.5,6.2-9.1,9.7-13.1
	c4.5-5.2,10.5-12.3,18-9.8c3,1,6.1,1.4,9.1,1.9c4.7,0.8,9.6,1.5,14,4.3c3.2,2,5.6,4.8,8,7.5c1.1,1.3,2.3,2.6,3.5,3.8
	c2.7,2.7,4.8,5.9,6.9,8.9c1.8,2.6,3.6,5.3,5.8,7.7c2.9,2.6,5.4,4.8,8.4,7.5c3.6,3.3,6.8,7.1,10,10.9c6,7.2,11.7,14,19.2,16.1
	c5.3,1.6,10.7,1.3,17.6-0.6c3.7-1.1,8.6-3.2,12-4.7c7-3.2,14.8-7.5,21-11.6c4.8-3.2,8.5-7.7,10.7-13"/>
<path class="st0" d="M463.9,403.3c-0.7,0-1.4,0.1-2.2,0.3c-11.4,2-19,10.9-21.8,26c-0.8,4.3-1.2,8.7-1.5,13
	c-0.3,3.7-0.6,7.4-1.2,10.8"/>
<path class="st0" d="M379.9,453.4c-0.3-1.3-0.6-2.6-0.9-4c-0.6-2.7-1.2-5.4-1.9-7.9c-1.3-4.4-3.3-9-5.2-13.4l-0.3-0.8
	c-1.3-2.9-2.3-6-3.4-9.3c-2.2-6.7-4.5-13.7-9.1-18.7c-4.1-4.4-10.7-7-18.2-7c-4.2,0-8.3,0.8-11.7,2.4c-4.1,1.8-7.4,4-10.1,6.6
	c-2.3,2.2-5.6,3.3-8.8,4.5c-2.1,0.7-4.3,1.5-6.3,2.6c-5.8,3.3-9.5,7.9-10.6,13.4c-1,5.1-0.9,11.7-0.8,18c0,3.9,0.1,7.9,0,11.6
	c0,0.6-0.1,1.4-0.1,2"/>
<path class="st0" d="M367.8,453.4c0-2.8-0.1-5.6-0.5-8.1c-0.5-3.5-1.1-7.4-2.5-10.9c-0.6-1.4-1.4-2.6-2.3-3.7
	c-0.7-0.9-1.3-1.8-1.8-2.7c-0.8-1.4-1.4-3-2-4.7c-1.9-4.8-3.8-9.7-9.1-11.1c-1.3-0.3-2.9-0.5-5-0.5c-2.2,0-4.6,0.2-6.7,0.4
	c-0.8,0-1.6,0.1-2.3,0.2c-6.8,0.4-14.1,3-19.6,7c-6.5,4.8-8.4,12.8-9.3,18.4c-0.6,4.1-1.2,10,0.7,15.1c0.1,0.2,0.2,0.4,0.3,0.6"/>
<path class="st0" d="M463.9,419.6c0,0-0.1,0-0.2,0l0,0h0c-10.2,0.9-15.9,12-17.4,33.8"/>
<path class="st0" d="M463.9,446c-0.9,0.1-1.8,0.4-2.7,0.9l0,0c-1.1,1.8-2.2,4-2.4,6.4"/>
<path class="st0" d="M121.7,453.4c-1.1-4-2.3-8.1-3.2-12.3c-1.1-5.3-1-12.6,0.2-16.7c1.7-5.4,4.5-8.7,9-13.7
	c0.7-0.8,1.5-1.6,2.3-2.4c3.2-3.3,6.8-7,7.6-10.9c1.6-7.8-3.2-12.3-8.1-15.8c-2.4-1.7-5.2-3-7.8-4.3c-3.4-1.7-7-3.4-9.9-5.9
	c-3.1-2.7-5.8-6.5-8-11.4c-1-2.2-1.4-4.5-1.9-6.8c-0.4-2.2-0.9-4.5-1.8-6.6c-4.3-9.6-9.9-20.5-19.1-28.2c-4-3.3-9.1-8.6-10.4-14.8
	c-0.9-4.1,0.3-7.7,1.3-10.6l0.2-0.5c2.2-6.5,8.7-22,22.4-25.9c2.4-0.7,5.5-1.2,8.6-1.8c4-0.7,8.1-1.4,11.1-2.5
	c4.7-1.7,8-4.1,11.6-6.8l0.5-0.4c3.4-2.6,7.6-5.8,13.1-5.4c4.8,0.4,10.2,2.9,15,6.9c4.8,4,8,8.9,8.8,13.4c0.5,2.9,0.8,5.2,1,7.5
	c0.2,1.9,0.4,3.8,0.7,5.8c1.8,10.1,6.6,18.2,14.5,24c6.4,4.7,14.8,8,25.2,9.8c13.5,2.3,24.9-2.1,29.2-4.1
	c6.8-3.2,14.1-10.8,20.4-17.8c6.3-6.9,9.6-11,10.3-21.9c0.2-3.5,0-6.9-0.3-10.2c-0.1-1.3-0.2-2.6-0.3-3.9c0-1-0.1-1.9-0.2-3
	c-0.3-3.3-0.6-6.8,0-10.3c1.3-7.3,5.5-10.5,12.9-9.8c9.7,0.9,18.2,7.3,21.6,16.4c2.7,7.2,0.5,14.7-1.2,20.8l-0.3,1
	c-2.9,10-6.8,17.9-12,24c-2.9,3.4-6.2,6.6-9.3,9.8c-1.2,1.1-2.4,2.3-3.5,3.5c-1.6,1.7-3.5,3.2-5.2,4.6c-2.2,1.8-4.5,3.8-6.4,6
	c-2.7,3.1-4.8,6.6-6.4,9.6c-5.4,9.9-9.1,18.6-11.5,26.7c-2.1,7.2-7.9,13-15.6,15.4c-9.9,3.1-24,2.7-41.9-1.1
	c-8.8-1.9-14.1-6.9-15.6-15c-1.7-9.3-8-13.9-14.6-18.7c-1.7-1.3-3.5-2.6-5.2-3.9c-7-5.8-3.5-11.2,0.2-17c1.7-2.6,3.4-5.2,4.1-8
	c1.2-4.2-0.3-8.7-1.8-13.1c-0.8-2.3-1.5-4.4-1.8-6.5c-1.7-10-3.4-17.9-8.5-21.2c-2.7-1.7-6.2-2-10.7-0.7c-0.7,0.2-1.5,0.4-2.4,0.7
	c-1.7,0.5-3.7,1.1-5.3,1.4c-2.8,0.6-5.7,1-8.8,1.4c-3.3,0.4-6.7,0.8-10.4,1.6c-5.7,1.2-10.7,3.9-14.4,7.9c-3.7,3.9-6,8.9-6.8,14.3
	c-0.3,2.3-0.4,4.3,0.2,6.5c1.9,6.3,7.6,10.8,12.7,14.7c1.2,0.9,2.3,1.8,3.3,2.6l0.2,0.1c4.9,4.1,11,9.1,10.8,16
	c-0.2,7.1,0.7,12.3,3,17.3c3.7,7.9,9,12.7,18.2,16.5c0.7,0.3,1.4,0.6,2.1,0.8c3.2,1.3,6.4,2.6,9.4,4.3c2.5,1.4,4.1,3.1,5.9,5
	c1,1,2,2.1,3.1,3.1c1.4,1.2,2.7,2.8,4,4.5c3.5,4.3,7.4,9.1,13.4,8c3.1-0.6,6.2-2.7,9.4-5c2.8-2,5.8-4,9.1-5.3
	c5.6-2.2,13.4-2.7,21.8-3.3c5-0.3,10.3-0.7,15.1-1.4c10.9-1.7,18.2-5.5,22.5-11.7c1.3-1.8,2.1-3.8,2.9-5.8c0.6-1.5,1.2-3.1,2.1-4.6
	c0.6-1.1,1.6-2,2.5-2.8c0.5-0.5,1.1-0.9,1.5-1.5c0.9-1,1.7-2,2.5-3c0.9-1.1,1.8-2.2,2.8-3.3c1.5-1.7,3.3-3.2,5-4.8
	c1.6-1.4,3.2-2.9,4.7-4.5c1.2-1.3,2.2-2.7,3.2-4c1.1-1.5,2.2-3.1,3.6-4.5c2.5-2.5,5.1-5.1,7.1-8.1c1.8-2.6,2.6-5.1,3.4-7.7
	c0.2-0.8,0.5-1.7,0.8-2.5c0.7-1.9,1.9-3.7,3-5.5c0.7-1,1.4-2.1,2-3.2c2.2-4,4.1-8.1,5.6-12c0.4-1.1,0.8-2.2,1.2-3.3
	c0.2-0.5,0.3-0.9,0.5-1.4c0.8-2.1,1.6-4.2,2.3-6.3c2.3-6,4.6-12.1,5.8-17.7c0.8-3.6,1.4-7.4,0.6-11.2c-2.8-13-15.4-26.5-26.9-29
	c-5.3-1.1-12-1.1-18.9,0.2c-11.4,2.1-15.6,7.6-15,19.6c0.1,2.8,0.4,5.6,0.6,8.4c0.5,5.9,1.1,11.5,0.4,16.9c-0.4,3.1-1.4,5.9-2.1,7.7
	c-1.7,4-5.5,10.9-10.3,18.4c-4.7,7.3-11,12.7-17.3,14.7c-12,3.8-28.1,0-37.5-8.8c-4.7-4.4-9.7-12-6.9-22.8c0.2-0.7,0.4-1.3,0.8-2
	c0.4-0.8,0.8-1.7,1-2.7c1.4-2.5,3.3-4.8,5-6.9c4-4.9,7.7-9.6,6.3-16.2c-0.3-1.2-0.8-2.5-1.4-3.9c-1.2-2.9-2.4-5.8-1-7.6
	c2.5-3.1,5.9-6.3,9.4-9.7c6.2-5.9,12.6-12,14.4-17.7c1.8-5.7-1.9-11.4-3.5-13.9c-1.7-2.6-3.7-5.3-5.8-8.2c-1.6-2.2-3.3-4.5-4.9-6.8
	c-1.3-1.9-2.6-3.7-3.9-5.6c-2.9-4.2-5.7-8.2-8.5-12.4c-1.1-1.7-2.3-3.5-3.4-5.2c-1.8-2.9-3.7-5.9-5.7-8.5c-4.2-5.6-8.9-7.9-14.1-6.8
	c-5.1,1-10.7,5-15.5,8.6c-0.7,0.5-1.3,1-1.9,1.5c-9,6.7-19.2,14.4-21.8,22.8c-2.3,7.2,1.9,10.6,6.4,14.1c0.5,0.4,1,0.8,1.4,1.2
	c3,2.4,5.2,5,7,7.1c2.5,2.9,4.7,6.4,6.8,9.8c1.5,2.4,2.9,4.7,4.3,6.5c4.9,6.4,11.2,9.2,17.3,11.9c6,2.7,12.2,5.4,16.9,11.5
	c0,0.2,0,0.4,0,0.7c0,0.6,0,1.3-0.1,1.9c-5.6,6-12.5,7.5-21.1,4.6c-2.6-0.9-5.2-2.3-8-3.8c-6.2-3.3-12.6-6.8-19.9-4.6
	c-5.3,1.6-9,5.3-12.5,8.9c-3.5,3.6-7.1,7.3-12.4,9.1c-3.1,1-6.2,1.4-10.7,1.7c-11.2,0.9-16.6,2.1-21.3,8c-6.1,7.7-13.6,21.4-15.9,27
	c-0.9,2.3-1.5,3.9-1.7,5.2c-2,9.8,4.1,17.5,9.6,23.2c1.3,1.3,2.8,2.6,4.2,3.8c1.3,1.1,2.6,2.2,3.8,3.4c2.4,2.4,4.4,5.4,6.3,8.2
	c1,1.4,1.9,2.9,3,4.3c7.5,10,9.8,18.8,7.4,28.4c-1.8,6.9-5.8,15.6-15,18c-3.4,0.9-7.1,1.3-10.9,1.7c-3.6,0.4-7.3,0.9-10.9,1.7
	c-3.2,0.7-6.2,1.7-9.1,2.6c-4.1,1.3-7.9,2.5-11.9,3c-7,0.9-13.1-0.5-19.1-1.9c-5.3-1.2-10.3-2.4-15.2-1.7"/>
<g>
</g>
<g>
</g>
<g>
</g>
<g>
</g>
<g>
</g>
<g>
</g>
</svg>
